HIERARCHY
ROOT hip
{
  OFFSET 0 0 0
  CHANNELS 6 Xposition Yposition Zposition Zrotation Yrotation Xrotation
  JOINT abdomen
  {
    OFFSET 0 20.6881 -0.73152
    CHANNELS 3 Zrotation Xrotation Yrotation
    JOINT chest
    {
      OFFSET 0 11.7043 -0.48768
      CHANNELS 3 Zrotation Xrotation Yrotation
      JOINT neck
      {
        OFFSET 0 22.1894 -2.19456
        CHANNELS 3 Zrotation Xrotation Yrotation
        JOINT head
        {
          OFFSET -0.24384 7.07133 1.2192
          CHANNELS 3 Zrotation Xrotation Yrotation
          JOINT leftEye
          {
            OFFSET 4.14528 8.04674 8.04672
            CHANNELS 3 Zrotation Xrotation Yrotation
            End Site
            {
              OFFSET 1 0 0
            }
          }
          JOINT rightEye
          {
            OFFSET -3.6576 8.04674 8.04672
            CHANNELS 3 Zrotation Xrotation Yrotation
            End Site
            {
              OFFSET 1 0 0
            }
          }
        }
      }
      JOINT rCollar
      {
        OFFSET -2.68224 19.2634 -4.8768
        CHANNELS 3 Zrotation Xrotation Yrotation
        JOINT rShldr
        {
          OFFSET -8.77824 -1.95073 1.46304
          CHANNELS 3 Zrotation Xrotation Yrotation
          JOINT rForeArm
          {
            OFFSET -28.1742 -1.7115 0.48768
            CHANNELS 3 Zrotation Xrotation Yrotation
            JOINT rHand
            {
              OFFSET -22.5879 0.773209 7.07136
              CHANNELS 3 Zrotation Xrotation Yrotation
              JOINT rThumb1
              {
                OFFSET -1.2192 -0.487915 3.41376
                CHANNELS 3 Zrotation Xrotation Yrotation
                JOINT rThumb2
                {
                  OFFSET -3.37035 -0.52449 3.41376
                  CHANNELS 3 Zrotation Xrotation Yrotation
                  End Site
                  {
                    OFFSET -1.78271 -1.18214 1.43049
                  }
                }
              }
              JOINT rIndex1
              {
                OFFSET -7.75947 0.938293 5.60832
                CHANNELS 3 Zrotation Xrotation Yrotation
                JOINT rIndex2
                {
                  OFFSET -2.54057 -0.884171 1.56538
                  CHANNELS 3 Zrotation Xrotation Yrotation
                  End Site
                  {
                    OFFSET -1.62519 -0.234802 1.16502
                  }
                }
              }
              JOINT rMid1
              {
                OFFSET -8.24714 1.18213 3.41376
                CHANNELS 3 Zrotation Xrotation Yrotation
                JOINT rMid2
                {
                  OFFSET -3.10165 -0.590103 1.0647
                  CHANNELS 3 Zrotation Xrotation Yrotation
                  End Site
                  {
                    OFFSET -2.48547 -0.328903 0.83742
                  }
                }
              }
              JOINT rRing1
              {
                OFFSET -8.82822 0.546677 1.51678
                CHANNELS 3 Zrotation Xrotation Yrotation
                JOINT rRing2
                {
                  OFFSET -2.60934 -0.819778 -0.0198488
                  CHANNELS 3 Zrotation Xrotation Yrotation
                  End Site
                  {
                    OFFSET -2.33842 -0.294052 0.168128
                  }
                }
              }
              JOINT rPinky1
              {
                OFFSET -8.27202 -0.0477905 -0.4584
                CHANNELS 3 Zrotation Xrotation Yrotation
                JOINT rPinky2
                {
                  OFFSET -1.82734 -0.647385 -0.700984
                  CHANNELS 3 Zrotation Xrotation Yrotation
                  End Site
                  {
                    OFFSET -1.69225 -0.51767 -0.607171
                  }
                }
              }
            }
          }
        }
      }
      JOINT lCollar
      {
        OFFSET 2.68224 19.2634 -4.8768
        CHANNELS 3 Zrotation Xrotation Yrotation
        JOINT lShldr
        {
          OFFSET 8.77824 -1.95073 1.46304
          CHANNELS 3 Zrotation Xrotation Yrotation
          JOINT lForeArm
          {
            OFFSET 28.1742 -1.7115 0.48768
            CHANNELS 3 Zrotation Xrotation Yrotation
            JOINT lHand
            {
              OFFSET 22.5879 0.773209 7.07136
              CHANNELS 3 Zrotation Xrotation Yrotation
              JOINT lThumb1
              {
                OFFSET 1.2192 -0.487915 3.41376
                CHANNELS 3 Zrotation Xrotation Yrotation
                JOINT lThumb2
                {
                  OFFSET 3.37035 -0.52449 3.41376
                  CHANNELS 3 Zrotation Xrotation Yrotation
                  End Site
                  {
                    OFFSET 1.78271 -1.18214 1.43049
                  }
                }
              }
              JOINT lIndex1
              {
                OFFSET 7.75947 0.938293 5.60832
                CHANNELS 3 Zrotation Xrotation Yrotation
                JOINT lIndex2
                {
                  OFFSET 2.54057 -0.884171 1.56538
                  CHANNELS 3 Zrotation Xrotation Yrotation
                  End Site
                  {
                    OFFSET 1.62519 -0.234802 1.16502
                  }
                }
              }
              JOINT lMid1
              {
                OFFSET 8.24714 1.18213 3.41376
                CHANNELS 3 Zrotation Xrotation Yrotation
                JOINT lMid2
                {
                  OFFSET 3.10165 -0.590103 1.0647
                  CHANNELS 3 Zrotation Xrotation Yrotation
                  End Site
                  {
                    OFFSET 2.48547 -0.328903 0.83742
                  }
                }
              }
              JOINT lRing1
              {
                OFFSET 8.82822 0.546677 1.51678
                CHANNELS 3 Zrotation Xrotation Yrotation
                JOINT lRing2
                {
                  OFFSET 2.60934 -0.819778 -0.0198488
                  CHANNELS 3 Zrotation Xrotation Yrotation
                  End Site
                  {
                    OFFSET 2.33842 -0.294052 0.168128
                  }
                }
              }
              JOINT lPinky1
              {
                OFFSET 8.27202 -0.0477905 -0.4584
                CHANNELS 3 Zrotation Xrotation Yrotation
                JOINT lPinky2
                {
                  OFFSET 1.82734 -0.647385 -0.700984
                  CHANNELS 3 Zrotation Xrotation Yrotation
                  End Site
                  {
                    OFFSET 1.69225 -0.51767 -0.607171
                  }
                }
              }
            }
          }
        }
      }
    }
  }
  JOINT rButtock
  {
    OFFSET -8.77824 4.35084 1.2192
    CHANNELS 3 Zrotation Xrotation Yrotation
    JOINT rThigh
    {
      OFFSET 0 -1.70687 -2.19456
      CHANNELS 3 Zrotation Xrotation Yrotation
      JOINT rShin
      {
        OFFSET 0 -36.8199 0.73152
        CHANNELS 3 Zrotation Xrotation Yrotation
        JOINT rFoot
        {
          OFFSET 0.73152 -45.1104 -5.12064
          CHANNELS 3 Zrotation Xrotation Yrotation
          End Site
          {
            OFFSET -1.1221 -3.69964 12.103
          }
        }
      }
    }
  }
  JOINT lButtock
  {
    OFFSET 8.77824 4.35084 1.2192
    CHANNELS 3 Zrotation Xrotation Yrotation
    JOINT lThigh
    {
      OFFSET 0 -1.70687 -2.19456
      CHANNELS 3 Zrotation Xrotation Yrotation
      JOINT lShin
      {
        OFFSET 0 -36.8199 0.73152
        CHANNELS 3 Zrotation Xrotation Yrotation
        JOINT lFoot
        {
          OFFSET -0.73152 -45.1104 -5.12064
          CHANNELS 3 Zrotation Xrotation Yrotation
          End Site
          {
            OFFSET 1.1221 -3.69964 12.103
          }
        }
      }
    }
  }
}
MOTION
Frames:	6
Frame Time:	0.00833333
95.7799 82.2556 223.906 0.0 0.0 0.0 -4.77304 0.00925691 -0.128166 -1.31326 0.0404285 -0.226878 -2.01804e-14 0.0 -6.95746e-16 -6.11201e-14 3.18055e-15 -2.14004e-15 -0.0 0.0 0.0 -0.0 0.0 0.0 -1.07848e-14 1.62677e-16 -1.98785e-16 -2.09667e-13 3.27373e-15 -6.95746e-15 -3.6143e-12 1.21775e-12 -1.27222e-13 -4.18189e-11 -5.10951e-13 -1.40581e-12 -9.85505e-11 1.53309e-12 -3.29187e-12 -1.70199e-10 2.64622e-12 -5.69081e-12 -9.85467e-11 1.53303e-12 -3.29505e-12 7.73091 5.47488 0.417314 -9.85505e-11 1.53293e-12 -3.28551e-12 2.90554 0.965183 0.102902 -9.85474e-11 1.53273e-12 -3.29187e-12 10.2786 0.731801 0.0259123 -9.85586e-11 1.537e-12 -3.28551e-12 2.22167 -0.733487 -0.20892 -1.08834e-14 1.5996e-16 -4.96962e-16 -2.11879e-13 3.47252e-15 -8.54774e-15 -3.68179e-12 -9.73051e-13 -6.36111e-14 -4.16921e-11 1.68351e-12 -1.44397e-12 -9.84237e-11 1.53965e-12 -3.28233e-12 -1.69969e-10 2.65258e-12 -5.6598e-12 -9.8431e-11 1.54098e-12 -3.27279e-12 -7.73091 5.47488 -0.417314 -9.84228e-11 1.53889e-12 -3.28551e-12 -2.90554 0.965183 -0.102902 -9.84309e-11 1.53989e-12 -3.27995e-12 -10.2786 0.731801 -0.0259123 -9.84201e-11 1.53979e-12 -3.28869e-12 -2.22167 -0.733487 0.20892 -2.03217e-16 0.0 -3.88251e-19 -3.15638 -1.94856 0.034699 -0.00821094 -2.07871 -0.0671998 -0.470889 4.00263 0.134317 2.03217e-16 0.0 3.88251e-19 -4.06322 -11.8418 0.547635 -0.0161023 15.8338 -0.442596 0.592783 -4.01612 0.0187236
95.9772 81.3079 213.184 -175.569 -11.7138 -174.359 -3.58678 0.418141 -1.77617 -0.575294 1.33992 -0.755927 -2.50287 3.90205 -0.575198 4.00465 -12.1901 0.16573 -0.0 0.0 0.0 -0.0 0.0 0.0 4.4056e-14 -1.33738e-14 -1.34981e-13 22.1338 -1.18174 0.637141 -3.23176 -1.315 5.20205 0.18353 9.52778 1.27315 1.88354e-10 -1.48767e-10 -1.44047e-10 3.18996e-10 -2.468e-10 -2.55515e-10 1.88358e-10 -1.48767e-10 -1.44052e-10 7.73091 5.47488 0.417314 1.88353e-10 -1.48769e-10 -1.44041e-10 2.90554 0.965183 0.102902 1.88358e-10 -1.4877e-10 -1.44047e-10 10.2786 0.731801 0.0259123 1.88345e-10 -1.48766e-10 -1.44039e-10 2.22167 -0.733487 -0.20892 4.39969e-14 -1.33765e-14 -1.35251e-13 -23.353 4.95656 -3.07458 3.29665 -1.35141 -5.29762 -0.0937447 6.80834 -0.932729 2.94175e-10 3.22437e-10 -1.78516e-10 5.02946e-10 5.48477e-10 -3.15734e-10 2.94168e-10 3.2244e-10 -1.78506e-10 -7.73091 5.47488 -0.417314 2.94177e-10 3.22439e-10 -1.78517e-10 -2.90554 0.965183 -0.102902 2.94167e-10 3.22438e-10 -1.78515e-10 -10.2786 0.731801 -0.0259123 2.94178e-10 3.22438e-10 -1.78523e-10 -2.22167 -0.733487 0.20892 -2.03217e-16 0.0 -3.88251e-19 -3.28758 -8.6124 -0.902041 0.0499733 4.41238 0.211368 -0.43317 2.41562 1.27092 2.03217e-16 0.0 3.88251e-19 -3.43142 -8.62115 -1.21904 -0.0464516 16.0895 -0.675194 0.626363 -7.42922 0.154722
95.8423 81.3737 213.099 -175.838 -11.9483 -175.386 -2.23805 0.973986 -3.50035 0.214963 2.67401 -1.31351 -5.07115 8.00549 -1.19352 8.31991 -25.0602 0.365576 -0.0 0.0 0.0 -0.0 0.0 0.0 1.04594e-13 -3.03418e-14 -2.84396e-13 45.5527 -2.4283 1.32474 -6.3888 -2.66845 10.7086 -0.108432 19.5825 2.74143 4.90837e-10 -3.17817e-10 -2.7647e-10 8.35077e-10 -5.27987e-10 -4.91341e-10 4.90843e-10 -3.17817e-10 -2.76478e-10 7.73091 5.47488 0.417314 4.90835e-10 -3.17822e-10 -2.76466e-10 2.90554 0.965183 0.102902 4.90843e-10 -3.17822e-10 -2.7647e-10 10.2786 0.731801 0.0259123 4.90829e-10 -3.17819e-10 -2.76461e-10 2.22167 -0.733487 -0.20892 1.04578e-13 -3.03446e-14 -2.84635e-13 -47.4517 10.1885 -6.41906 6.52768 -2.75124 -10.9344 0.054712 13.9614 -1.95829 7.48895e-10 6.85599e-10 -3.82903e-10 1.28236e-09 1.16599e-09 -6.77411e-10 7.48888e-10 6.85604e-10 -3.82894e-10 -7.73091 5.47488 -0.417314 7.48898e-10 6.85603e-10 -3.82903e-10 -2.90554 0.965183 -0.102902 7.48886e-10 6.85601e-10 -3.82905e-10 -10.2786 0.731801 -0.0259123 7.48897e-10 6.856e-10 -3.82912e-10 -2.22167 -0.733487 0.20892 -2.03217e-16 0.0 -3.88251e-19 -3.61618 -15.5454 -1.93548 0.0415345 11.2419 0.514371 -0.322932 0.720291 2.48193 2.03217e-16 0.0 3.88251e-19 -2.50022 -5.1209 -3.04161 -0.0762065 16.3587 -0.921974 0.6798 -11.056 0.296735
95.7122 81.4543 213.001 -176.069 -12.1818 -176.388 -1.14377 1.23167 -5.07321 0.972771 3.93729 -1.8177 -7.26937 11.7014 -1.75814 12.2695 -36.5688 0.605102 -0.0 0.0 0.0 -0.0 0.0 0.0 1.53737e-13 -4.04468e-14 -4.04547e-13 66.4804 -3.54346 1.91468 -8.98744 -3.81512 15.6376 -0.867608 28.5228 4.28801 7.62162e-10 -4.49366e-10 -4.25556e-10 1.29738e-09 -7.45692e-10 -7.55163e-10 7.62168e-10 -4.49367e-10 -4.25566e-10 7.73091 5.47488 0.417314 7.62159e-10 -4.49374e-10 -4.25553e-10 2.90554 0.965183 0.102902 7.6217e-10 -4.49374e-10 -4.25556e-10 10.2786 0.731801 0.0259123 7.62153e-10 -4.49372e-10 -4.25547e-10 2.22167 -0.733487 -0.20892 1.53758e-13 -4.04495e-14 -4.0476e-13 -68.4251 14.6956 -9.50283 9.14944 -3.91581 -15.9266 0.421325 20.4026 -2.96458 1.07937e-09 9.64232e-10 -5.28983e-10 1.84878e-09 1.64013e-09 -9.35883e-10 1.07937e-09 9.64239e-10 -5.28974e-10 -7.73091 5.47488 -0.417314 1.07938e-09 9.64239e-10 -5.28981e-10 -2.90554 0.965183 -0.102902 1.07936e-09 9.64235e-10 -5.28986e-10 -10.2786 0.731801 -0.0259123 1.07938e-09 9.64234e-10 -5.28992e-10 -2.22167 -0.733487 0.20892 -2.03217e-16 0.0 -3.88251e-19 -4.24766 -21.9168 -2.95899 -0.0298794 17.393 0.803268 -0.169015 -0.7552 3.5417 2.03217e-16 0.0 3.88251e-19 -1.57339 -2.1772 -4.69114 -0.100649 16.5999 -1.14224 0.743576 -14.2551 0.436349
95.5989 81.4759 212.926 -176.27 -12.4514 -177.339 -0.770172 0.750817 -6.26592 1.60269 5.0249 -2.18553 -8.71157 14.3829 -2.15817 15.1223 -44.6746 0.85069 -0.0 0.0 0.0 -0.0 0.0 0.0 1.74396e-13 -3.33943e-14 -4.51539e-13 81.1216 -4.33196 2.25726 -10.685 -4.5682 19.0925 -1.75001 34.7337 5.59162 9.5559e-10 -4.87166e-10 -6.16299e-10 1.62526e-09 -8.0469e-10 -1.08897e-09 9.55598e-10 -4.87167e-10 -6.16309e-10 7.73091 5.47488 0.417314 9.55587e-10 -4.87175e-10 -6.16296e-10 2.90554 0.965183 0.102902 9.55599e-10 -4.87175e-10 -6.16299e-10 10.2786 0.731801 0.0259123 9.55581e-10 -4.87172e-10 -6.1629e-10 2.22167 -0.733487 -0.20892 1.74433e-13 -3.33966e-14 -4.51738e-13 -82.79 17.5639 -11.6551 10.7806 -4.62945 -19.2739 0.839475 25.0847 -3.77213 1.09925e-09 1.03155e-09 -5.29295e-10 1.8827e-09 1.75584e-09 -9.36347e-10 1.09924e-09 1.03155e-09 -5.29286e-10 -7.73091 5.47488 -0.417314 1.09925e-09 1.03155e-09 -5.29292e-10 -2.90554 0.965183 -0.102902 1.09924e-09 1.03155e-09 -5.29299e-10 -10.2786 0.731801 -0.0259123 1.09925e-09 1.03155e-09 -5.29305e-10 -2.22167 -0.733487 0.20892 -2.03217e-16 0.0 -3.88251e-19 -5.16263 -26.9043 -3.80665 -0.119839 21.8496 1.02274 -0.0451931 -1.68559 4.22212 2.03217e-16 0.0 3.88251e-19 -1.09125 -0.616187 -5.93161 -0.116385 16.7718 -1.29492 0.799672 -16.3849 0.562128
95.3465 81.4649 213.161 -177.413 -13.1764 -176.216 -1.57087 -0.972089 -6.9715 2.05827 5.9567 -2.36899 -9.1484 15.6754 -2.30443 16.2912 -48.0624 1.00243 -0.0 0.0 0.0 -0.0 0.0 0.0 1.50952e-13 6.81049e-15 -3.80017e-13 86.9533 -4.64923 2.26626 -11.3397 -4.85991 20.4786 -2.19125 37.1432 6.16993 1.07837e-09 -3.62237e-10 -9.71707e-10 1.82851e-09 -5.86029e-10 -1.70532e-09 1.07838e-09 -3.6224e-10 -9.71715e-10 7.73091 5.47488 0.417314 1.07837e-09 -3.62247e-10 -9.71704e-10 2.90554 0.965183 0.102902 1.07838e-09 -3.62245e-10 -9.71708e-10 10.2786 0.731801 0.0259123 1.07836e-09 -3.62242e-10 -9.717e-10 2.22167 -0.733487 -0.20892 1.50979e-13 6.80896e-15 -3.80219e-13 -88.4396 18.2643 -12.3329 11.2422 -4.7999 -20.2855 1.07804 27.3199 -4.18416 5.33878e-10 7.29616e-10 -2.52498e-10 9.13306e-10 1.2461e-09 -4.46141e-10 5.33874e-10 7.29622e-10 -2.52488e-10 -7.73091 5.47488 -0.417314 5.33883e-10 7.29623e-10 -2.52494e-10 -2.90554 0.965183 -0.102902 5.33869e-10 7.2962e-10 -2.52501e-10 -10.2786 0.731801 -0.0259123 5.3388e-10 7.29619e-10 -2.52506e-10 -2.22167 -0.733487 0.20892 -2.03217e-16 0.0 -3.88251e-19 -6.34301 -30.1518 -4.31738 -0.167069 23.9917 1.11725 -0.0301399 -1.84012 4.33134 2.03217e-16 0.0 3.88251e-19 -1.50765 -1.14434 -6.64567 -0.121898 16.8486 -1.35188 0.831852 -16.9937 0.683712
